<svg xmlns="http://www.w3.org/2000/svg" width="512" height="512" style="shape-rendering:geometricPrecision;text-rendering:geometricPrecision;image-rendering:optimizeQuality;fill-rule:evenodd;clip-rule:evenodd"><path style="opacity:.99" fill="#e54f6d" d="M245.5 73.5c27.216-2.636 48.716 7.031 64.5 29a59989.277 59989.277 0 0 0 147 293c13.364 30.474 8.197 57.308-15.5 80.5-9.439 7.384-20.105 12.051-32 14-102.667.667-205.333.667-308 0-34.413-7.482-52.746-28.816-55-64a72.676 72.676 0 0 1 4.5-23.5l150-300c11.013-15.586 25.846-25.253 44.5-29z"/><path style="opacity:1" fill="#f3d5db" d="M251.5 115.5c8.625-.436 15.792 2.564 21.5 9l147 294c3.274 13.618-1.559 23.118-14.5 28.5-100 .667-200 .667-300 0-12.936-5.371-17.769-14.871-14.5-28.5l147-294c3.826-4.152 8.326-7.152 13.5-9z"/><path style="opacity:1" fill="#e54f6d" d="M250.5 191.5c12.284-1.279 20.784 3.721 25.5 15a3538.73 3538.73 0 0 1 0 119c-4.635 12.238-13.468 17.072-26.5 14.5-7.5-2.167-12.333-7-14.5-14.5a3538.73 3538.73 0 0 1 0-119c3.081-7.249 8.247-12.249 15.5-15z"/><path style="opacity:.999" fill="#e5506d" d="M248.5 362.5c21.827-1.344 30.66 8.656 26.5 30-6.528 11.18-16.028 14.68-28.5 10.5-10.399-5.831-14.232-14.665-11.5-26.5 2.687-6.519 7.187-11.186 13.5-14z"/></svg>